<mxfile host="app.diagrams.net" modified="2023-07-05T12:31:47.957Z" agent="Mozilla/5.0 (Windows NT 10.0; Win64; x64) AppleWebKit/537.36 (KHTML, like Gecko) Chrome/114.0.0.0 Safari/537.36 Edg/114.0.1823.67" etag="GiFbPtnoWcRvaBQ78oV8" version="21.5.2" type="device">
  <diagram name="Page-1" id="Rx7O1AThIPOgHcoJQP41">
    <mxGraphModel dx="1260" dy="763" grid="1" gridSize="10" guides="1" tooltips="1" connect="1" arrows="1" fold="1" page="1" pageScale="1" pageWidth="850" pageHeight="1100" math="0" shadow="0">
      <root>
        <mxCell id="0" />
        <mxCell id="1" parent="0" />
        <mxCell id="PV1aW--IDkZaUZ6H5f_K-4" value="struct z_erofs_map_header&lt;span style=&quot;background-color: initial;&quot;&gt;&amp;nbsp;&lt;/span&gt;" style="rounded=0;whiteSpace=wrap;html=1;fillColor=#fff2cc;strokeColor=#000000;" vertex="1" parent="1">
          <mxGeometry x="140" y="240" width="130" height="50" as="geometry" />
        </mxCell>
        <mxCell id="PV1aW--IDkZaUZ6H5f_K-5" value="xattr" style="rounded=0;whiteSpace=wrap;html=1;" vertex="1" parent="1">
          <mxGeometry x="140" y="190" width="130" height="50" as="geometry" />
        </mxCell>
        <mxCell id="PV1aW--IDkZaUZ6H5f_K-6" value="inode base" style="rounded=0;whiteSpace=wrap;html=1;" vertex="1" parent="1">
          <mxGeometry x="140" y="140" width="130" height="50" as="geometry" />
        </mxCell>
        <mxCell id="PV1aW--IDkZaUZ6H5f_K-9" value="lcluster indexes" style="rounded=0;whiteSpace=wrap;html=1;fillColor=#f8cecc;strokeColor=#000000;" vertex="1" parent="1">
          <mxGeometry x="140" y="290" width="130" height="50" as="geometry" />
        </mxCell>
        <mxCell id="PV1aW--IDkZaUZ6H5f_K-10" value="struct&lt;br&gt;z_erofs_vle_decompressed_index" style="rounded=0;whiteSpace=wrap;html=1;" vertex="1" parent="1">
          <mxGeometry x="380" y="230" width="210" height="40" as="geometry" />
        </mxCell>
        <mxCell id="PV1aW--IDkZaUZ6H5f_K-12" value="struct&lt;br&gt;z_erofs_vle_decompressed_index" style="rounded=0;whiteSpace=wrap;html=1;" vertex="1" parent="1">
          <mxGeometry x="380" y="270" width="210" height="40" as="geometry" />
        </mxCell>
        <mxCell id="PV1aW--IDkZaUZ6H5f_K-13" value="struct&lt;br&gt;z_erofs_vle_decompressed_index" style="rounded=0;whiteSpace=wrap;html=1;" vertex="1" parent="1">
          <mxGeometry x="380" y="310" width="210" height="40" as="geometry" />
        </mxCell>
        <mxCell id="PV1aW--IDkZaUZ6H5f_K-14" value="struct&lt;br&gt;z_erofs_vle_decompressed_index" style="rounded=0;whiteSpace=wrap;html=1;" vertex="1" parent="1">
          <mxGeometry x="380" y="390" width="210" height="40" as="geometry" />
        </mxCell>
        <mxCell id="PV1aW--IDkZaUZ6H5f_K-15" value="..." style="rounded=0;whiteSpace=wrap;html=1;" vertex="1" parent="1">
          <mxGeometry x="380" y="350" width="210" height="40" as="geometry" />
        </mxCell>
        <mxCell id="PV1aW--IDkZaUZ6H5f_K-16" value="" style="endArrow=classic;html=1;rounded=0;exitX=1;exitY=0;exitDx=0;exitDy=0;entryX=0;entryY=0;entryDx=0;entryDy=0;dashed=1;dashPattern=8 8;" edge="1" parent="1" source="PV1aW--IDkZaUZ6H5f_K-9" target="PV1aW--IDkZaUZ6H5f_K-10">
          <mxGeometry width="50" height="50" relative="1" as="geometry">
            <mxPoint x="220" y="400" as="sourcePoint" />
            <mxPoint x="270" y="350" as="targetPoint" />
          </mxGeometry>
        </mxCell>
        <mxCell id="PV1aW--IDkZaUZ6H5f_K-17" value="" style="endArrow=classic;html=1;rounded=0;entryX=0;entryY=1;entryDx=0;entryDy=0;exitX=1;exitY=1;exitDx=0;exitDy=0;dashed=1;dashPattern=8 8;" edge="1" parent="1" source="PV1aW--IDkZaUZ6H5f_K-9" target="PV1aW--IDkZaUZ6H5f_K-14">
          <mxGeometry width="50" height="50" relative="1" as="geometry">
            <mxPoint x="220" y="400" as="sourcePoint" />
            <mxPoint x="270" y="350" as="targetPoint" />
          </mxGeometry>
        </mxCell>
        <mxCell id="PV1aW--IDkZaUZ6H5f_K-27" style="edgeStyle=orthogonalEdgeStyle;rounded=0;orthogonalLoop=1;jettySize=auto;html=1;exitX=1;exitY=0.5;exitDx=0;exitDy=0;" edge="1" parent="1" source="PV1aW--IDkZaUZ6H5f_K-19">
          <mxGeometry relative="1" as="geometry">
            <mxPoint x="750" y="200" as="targetPoint" />
          </mxGeometry>
        </mxCell>
        <mxCell id="PV1aW--IDkZaUZ6H5f_K-19" value="di_advice" style="rounded=0;whiteSpace=wrap;html=1;" vertex="1" parent="1">
          <mxGeometry x="660" y="190" width="70" height="20" as="geometry" />
        </mxCell>
        <mxCell id="PV1aW--IDkZaUZ6H5f_K-20" value="di_clusterofs" style="rounded=0;whiteSpace=wrap;html=1;" vertex="1" parent="1">
          <mxGeometry x="660" y="210" width="70" height="20" as="geometry" />
        </mxCell>
        <mxCell id="PV1aW--IDkZaUZ6H5f_K-21" value="blkaddr" style="rounded=0;whiteSpace=wrap;html=1;" vertex="1" parent="1">
          <mxGeometry x="660" y="230" width="70" height="40" as="geometry" />
        </mxCell>
        <mxCell id="PV1aW--IDkZaUZ6H5f_K-37" style="edgeStyle=orthogonalEdgeStyle;rounded=0;orthogonalLoop=1;jettySize=auto;html=1;exitX=1;exitY=0.5;exitDx=0;exitDy=0;" edge="1" parent="1" source="PV1aW--IDkZaUZ6H5f_K-22">
          <mxGeometry relative="1" as="geometry">
            <mxPoint x="750" y="305" as="targetPoint" />
          </mxGeometry>
        </mxCell>
        <mxCell id="PV1aW--IDkZaUZ6H5f_K-22" value="di_advice" style="rounded=0;whiteSpace=wrap;html=1;" vertex="1" parent="1">
          <mxGeometry x="660" y="295" width="70" height="20" as="geometry" />
        </mxCell>
        <mxCell id="PV1aW--IDkZaUZ6H5f_K-23" value="di_clusterofs" style="rounded=0;whiteSpace=wrap;html=1;" vertex="1" parent="1">
          <mxGeometry x="660" y="315" width="70" height="20" as="geometry" />
        </mxCell>
        <mxCell id="PV1aW--IDkZaUZ6H5f_K-25" value="delta0" style="rounded=0;whiteSpace=wrap;html=1;" vertex="1" parent="1">
          <mxGeometry x="660" y="335" width="70" height="20" as="geometry" />
        </mxCell>
        <mxCell id="PV1aW--IDkZaUZ6H5f_K-26" value="delta1" style="rounded=0;whiteSpace=wrap;html=1;" vertex="1" parent="1">
          <mxGeometry x="660" y="355" width="70" height="20" as="geometry" />
        </mxCell>
        <mxCell id="PV1aW--IDkZaUZ6H5f_K-33" value="" style="endArrow=classic;html=1;rounded=0;exitX=1;exitY=0;exitDx=0;exitDy=0;entryX=0;entryY=0.25;entryDx=0;entryDy=0;dashed=1;dashPattern=8 8;" edge="1" parent="1" source="PV1aW--IDkZaUZ6H5f_K-10" target="PV1aW--IDkZaUZ6H5f_K-19">
          <mxGeometry width="50" height="50" relative="1" as="geometry">
            <mxPoint x="510" y="250" as="sourcePoint" />
            <mxPoint x="560" y="200" as="targetPoint" />
          </mxGeometry>
        </mxCell>
        <mxCell id="PV1aW--IDkZaUZ6H5f_K-34" value="" style="endArrow=classic;html=1;rounded=0;exitX=1;exitY=1;exitDx=0;exitDy=0;entryX=0;entryY=1;entryDx=0;entryDy=0;dashed=1;dashPattern=8 8;" edge="1" parent="1" source="PV1aW--IDkZaUZ6H5f_K-10" target="PV1aW--IDkZaUZ6H5f_K-21">
          <mxGeometry width="50" height="50" relative="1" as="geometry">
            <mxPoint x="510" y="250" as="sourcePoint" />
            <mxPoint x="560" y="200" as="targetPoint" />
          </mxGeometry>
        </mxCell>
        <mxCell id="PV1aW--IDkZaUZ6H5f_K-35" value="" style="endArrow=classic;html=1;rounded=0;exitX=1;exitY=0;exitDx=0;exitDy=0;entryX=0;entryY=0;entryDx=0;entryDy=0;dashed=1;dashPattern=8 8;" edge="1" parent="1" source="PV1aW--IDkZaUZ6H5f_K-12" target="PV1aW--IDkZaUZ6H5f_K-22">
          <mxGeometry width="50" height="50" relative="1" as="geometry">
            <mxPoint x="600" y="280" as="sourcePoint" />
            <mxPoint x="620" y="310" as="targetPoint" />
          </mxGeometry>
        </mxCell>
        <mxCell id="PV1aW--IDkZaUZ6H5f_K-36" value="" style="endArrow=classic;html=1;rounded=0;exitX=1;exitY=0;exitDx=0;exitDy=0;entryX=0;entryY=1;entryDx=0;entryDy=0;dashed=1;dashPattern=8 8;" edge="1" parent="1" source="PV1aW--IDkZaUZ6H5f_K-13" target="PV1aW--IDkZaUZ6H5f_K-26">
          <mxGeometry width="50" height="50" relative="1" as="geometry">
            <mxPoint x="600" y="280" as="sourcePoint" />
            <mxPoint x="670" y="305" as="targetPoint" />
          </mxGeometry>
        </mxCell>
        <mxCell id="PV1aW--IDkZaUZ6H5f_K-38" value="type = NONHEAD" style="text;html=1;align=center;verticalAlign=middle;resizable=0;points=[];autosize=1;strokeColor=none;fillColor=none;" vertex="1" parent="1">
          <mxGeometry x="740" y="290" width="120" height="30" as="geometry" />
        </mxCell>
        <mxCell id="PV1aW--IDkZaUZ6H5f_K-39" value="type = HEAD" style="text;html=1;align=center;verticalAlign=middle;resizable=0;points=[];autosize=1;strokeColor=none;fillColor=none;" vertex="1" parent="1">
          <mxGeometry x="740" y="185" width="90" height="30" as="geometry" />
        </mxCell>
        <mxCell id="PV1aW--IDkZaUZ6H5f_K-76" value="h_advice" style="rounded=0;whiteSpace=wrap;html=1;" vertex="1" parent="1">
          <mxGeometry x="30" y="215" width="70" height="30" as="geometry" />
        </mxCell>
        <mxCell id="PV1aW--IDkZaUZ6H5f_K-77" value="h_algtype" style="rounded=0;whiteSpace=wrap;html=1;" vertex="1" parent="1">
          <mxGeometry x="30" y="245" width="70" height="30" as="geometry" />
        </mxCell>
        <mxCell id="PV1aW--IDkZaUZ6H5f_K-78" value="h_clusterbits" style="rounded=0;whiteSpace=wrap;html=1;" vertex="1" parent="1">
          <mxGeometry x="30" y="275" width="70" height="30" as="geometry" />
        </mxCell>
        <mxCell id="PV1aW--IDkZaUZ6H5f_K-79" value="" style="endArrow=classic;html=1;rounded=0;exitX=0;exitY=0;exitDx=0;exitDy=0;entryX=1;entryY=0;entryDx=0;entryDy=0;dashed=1;dashPattern=8 8;" edge="1" parent="1" source="PV1aW--IDkZaUZ6H5f_K-4" target="PV1aW--IDkZaUZ6H5f_K-76">
          <mxGeometry width="50" height="50" relative="1" as="geometry">
            <mxPoint x="370" y="450" as="sourcePoint" />
            <mxPoint x="420" y="400" as="targetPoint" />
          </mxGeometry>
        </mxCell>
        <mxCell id="PV1aW--IDkZaUZ6H5f_K-80" value="" style="endArrow=classic;html=1;rounded=0;exitX=0;exitY=0;exitDx=0;exitDy=0;entryX=1;entryY=1;entryDx=0;entryDy=0;dashed=1;dashPattern=8 8;" edge="1" parent="1" source="PV1aW--IDkZaUZ6H5f_K-9" target="PV1aW--IDkZaUZ6H5f_K-78">
          <mxGeometry width="50" height="50" relative="1" as="geometry">
            <mxPoint x="370" y="450" as="sourcePoint" />
            <mxPoint x="420" y="400" as="targetPoint" />
          </mxGeometry>
        </mxCell>
      </root>
    </mxGraphModel>
  </diagram>
</mxfile>
